<?xml version="1.0" encoding="utf-8"?>
<!-- Generator: Adobe Illustrator 18.0.0, SVG Export Plug-In . SVG Version: 6.00 Build 0)  -->
<!DOCTYPE svg PUBLIC "-//W3C//DTD SVG 1.1//EN" "http://www.w3.org/Graphics/SVG/1.1/DTD/svg11.dtd">
<svg version="1.1" id="Layer_1" xmlns="http://www.w3.org/2000/svg" xmlns:xlink="http://www.w3.org/1999/xlink" x="0px" y="0px"
	 viewBox="0 0 1280 800" enable-background="new 0 0 1280 800" xml:space="preserve">
<g>
	<g>
		<g>
			<path fill="#FFFFFF" d="M449.2,417.3c0,8.8,0.2,15.7,0.6,19.6c0.3,2.7,0.9,4.7,3.7,5c1.3,0.2,3.3,0.4,4.6,0.4
				c1.2,0,1.6,0.3,1.6,0.7c0,0.6-0.6,0.9-2,0.9c-5.8,0-11.6-0.3-13.9-0.3c-2.4,0-8.2,0.3-11.7,0.3c-1.3,0-1.9-0.2-1.9-0.9
				c0-0.5,0.4-0.7,1.4-0.7c1.4,0,2.5-0.2,3.3-0.4c1.8-0.4,2.4-2.4,2.7-5c0.5-3.9,0.5-10.7,0.5-19.6v-16.2c0-13.9-0.1-16.5-0.2-19.4
				c-0.2-3.1-0.9-4.6-4-5.2c-0.7-0.2-2.3-0.3-3.6-0.3c-0.9,0-1.6-0.2-1.6-0.7c0-0.7,0.7-0.9,2.1-0.9c2.4,0,5,0.1,7.4,0.1
				c2.4,0.1,4.5,0.2,5.8,0.2c3.5,0,22.1,0,24.2-0.1c1.7-0.1,2.8-0.1,3.8-0.4c0.6-0.2,1-0.6,1.5-0.6c0.4,0,0.6,0.4,0.6,0.8
				c0,0.6-0.5,1.7-0.7,4.1c-0.1,0.9-0.3,6.3-0.5,7.4c-0.1,0.7-0.3,1.3-0.9,1.3s-0.8-0.5-0.9-1.5c0-0.7,0-2.2-0.5-3.5
				c-0.6-1.3-2.6-2.7-6.1-2.7l-14.3-0.3c-0.6,0-1,0.3-1,1.3v22.9c0,0.6,0.2,0.8,0.8,0.8l11.8-0.1c1.6,0,2.9,0,4.2-0.1
				c1.7-0.1,3-0.5,4-1.7c0.5-0.5,0.7-0.9,1.2-0.9c0.4,0,0.6,0.3,0.6,0.8c0,0.6-0.5,2.8-0.7,5.7c-0.2,1.8-0.4,6.1-0.4,6.7
				c0,0.8,0,1.7-0.9,1.7c-0.6,0-0.7-0.6-0.7-1.3c0-0.6-0.2-1.7-0.6-2.8c-0.5-1.3-1.8-2.9-4.7-3.3c-2.3-0.3-12.2-0.3-13.7-0.3
				c-0.5,0-0.8,0.2-0.8,0.8L449.2,417.3L449.2,417.3z"/>
			<path fill="#FFFFFF" d="M489.7,407.5c0-11.8,0.1-14-0.1-16.5c-0.2-2.8-0.9-3.5-3.5-4.2c-0.6-0.2-2-0.3-3.1-0.3
				c-0.9,0-1.4-0.3-1.4-0.8s0.6-0.7,1.7-0.7c4.3,0,9.7,0.2,12.1,0.2c2,0,7.4-0.2,10.4-0.2c1.2,0,1.7,0.2,1.7,0.7
				c0,0.6-0.5,0.8-1.3,0.8c-0.9,0-1.4,0.1-2.4,0.3c-2.1,0.4-2.7,1.5-2.9,4.2c-0.2,2.5-0.2,4.7-0.2,16.5v10.9
				c0,11.4,2.2,15.8,6.1,18.9c3.6,2.8,7.4,3.1,10.2,3.1c3.5,0,7.4-1,10.6-4.1c4.5-4.2,4.5-11,4.5-19v-9.8c0-11.8,0.1-14,0-16.5
				c-0.2-2.7-0.7-3.5-3.3-4.2c-0.6-0.2-2-0.3-2.9-0.3s-1.4-0.3-1.4-0.8s0.6-0.7,1.7-0.7c4.1,0,9.5,0.2,9.6,0.2
				c0.9,0,6.3-0.2,9.5-0.2c1.1,0,1.7,0.2,1.7,0.7c0,0.6-0.5,0.8-1.4,0.8s-1.4,0.1-2.4,0.3c-2.2,0.4-2.7,1.5-2.9,4.2
				c-0.1,2.5-0.2,4.7-0.2,16.5v8.3c0,8.7-0.9,17.9-7.7,23.5c-5.7,4.8-11.9,5.6-17.1,5.6c-4.2,0-12.6-0.2-18.5-5.3
				c-4.1-3.6-7.3-9.4-7.3-20.7v-11.4H489.7z"/>
			<path fill="#FFFFFF" d="M566.1,433.4c0.2,6.1,1.2,7.8,2.8,8.4c1.4,0.5,2.9,0.5,4.2,0.5c0.9,0,1.4,0.4,1.4,0.8
				c0,0.6-0.7,0.8-1.8,0.8c-5.2,0-9-0.3-10.5-0.3c-0.7,0-4.6,0.3-8.7,0.3c-1.1,0-1.8-0.1-1.8-0.8c0-0.5,0.6-0.8,1.3-0.8
				c1.1,0,2.6-0.1,3.7-0.4c2.1-0.6,2.4-2.7,2.5-9.4l0.7-46.2c0-1.6,0.6-2.7,1.4-2.7c1,0,2.1,1.2,3.5,2.6c1,1,13.1,13.2,24.9,24.6
				c5.5,5.4,16.2,16.3,17.4,17.3h0.4l-0.8-34.5c-0.1-4.8-0.8-6-2.8-6.8c-1.2-0.5-3.1-0.4-4.2-0.4c-1,0-1.3-0.3-1.3-0.8
				c0-0.6,0.8-0.7,2-0.7c4.2,0,8.5,0.2,10.3,0.2c0.9,0,3.9-0.2,7.9-0.2c1.1,0,1.8,0.1,1.8,0.7c0,0.5-0.5,0.8-1.4,0.8
				c-0.8,0-1.5,0-2.5,0.3c-2.2,0.6-2.8,2-2.9,6.4l-0.9,49.2c0,1.7-0.6,2.5-1.3,2.5c-1.4,0-2.5-0.8-3.3-1.7
				c-5-4.7-15.1-14.2-23.6-22.4c-8.8-8.4-17.3-18.1-18.9-19.1h-0.3L566.1,433.4z"/>
			<path fill="#FFFFFF" d="M638.5,407.5c0-11.8-0.1-14-0.2-16.5c-0.2-2.7-1-3.5-3.5-4.2c-0.6-0.2-2.1-0.3-3.2-0.3
				c-0.8,0-1.4-0.3-1.4-0.8s0.6-0.7,1.8-0.7c4.2,0,9.4,0.2,11.6,0.2c2.5,0,8.3-0.2,13.1-0.2c10.1,0,23.7,0,32.5,8.9
				c4,4,7.6,10.6,7.6,19.8c0,9.8-4.2,17.3-8.8,21.7c-3.7,3.7-12.2,9.2-27.1,9.2c-2.9,0-6.4-0.3-9.6-0.5c-3.2-0.3-6.2-0.5-8.2-0.5
				c-0.9,0-2.7,0.1-4.6,0.1c-1.9,0.1-3.9,0.2-5.6,0.2c-1,0-1.6-0.3-1.6-0.8c0-0.4,0.3-0.8,1.3-0.8c1.2,0,2.1-0.1,2.8-0.3
				c1.7-0.4,2.2-1.8,2.5-4.1c0.4-3.3,0.5-9.5,0.5-16.6v-13.8H638.5z M648.6,416.2c0,8.3,0.3,14.2,0.4,15.8c0.1,1.9,0.4,4.7,1,5.5
				c1,1.5,4.3,3.1,10.6,3.1c7.3,0,12.8-1.3,17.6-5.3c5.2-4.3,6.9-11.3,6.9-19.4c0-9.9-3.9-16.3-7.5-19.5c-7.4-6.6-16.2-7.4-22.6-7.4
				c-1.7,0-4.3,0.2-5,0.6c-0.7,0.3-1.2,0.6-1.2,1.6c-0.1,2.7-0.3,9.1-0.3,15.2L648.6,416.2L648.6,416.2z"/>
			<path fill="#FFFFFF" d="M716.5,401.2c0-13.9-0.1-16.5-0.2-19.4c-0.2-3.1-0.9-4.6-4-5.2c-0.7-0.2-2.3-0.3-3.6-0.3
				c-1,0-1.6-0.2-1.6-0.8c0-0.6,0.6-0.8,2-0.8c4.9,0,10.6,0.3,13.2,0.3c3.8,0,9.1-0.3,13.3-0.3c11.5,0,15.6,3.9,17.1,5.2
				c2,1.9,4.6,6.1,4.6,10.9c0,13-9.5,22.2-22.6,22.2c-0.5,0-1.5,0-1.9-0.1c-0.5-0.1-1.1-0.2-1.1-0.8c0-0.7,0.6-1,2.6-1
				c5.1,0,12.3-5.8,12.3-15.1c0-3-0.3-9.2-5.4-13.8c-3.3-3-7.1-3.6-9.2-3.6c-1.4,0-2.8,0.1-3.6,0.4c-0.5,0.2-0.8,0.7-0.8,1.7v36.7
				c0,8.4,0,15.7,0.5,19.6c0.3,2.6,0.8,4.6,3.6,4.9c1.3,0.2,3.3,0.4,4.7,0.4c1,0,1.5,0.3,1.5,0.7c0,0.6-0.7,0.9-1.7,0.9
				c-6.1,0-11.8-0.3-14.2-0.3c-2.1,0-7.9,0.3-11.6,0.3c-1.2,0-1.8-0.3-1.8-0.9c0-0.5,0.4-0.7,1.5-0.7c1.4,0,2.5-0.2,3.3-0.4
				c1.8-0.4,2.3-2.4,2.7-5c0.5-3.9,0.5-11.1,0.5-19.6L716.5,401.2L716.5,401.2z"/>
			<path fill="#FFFFFF" d="M785.3,421.3c0,10,0.1,15,1.8,16.4c1.4,1.2,4.5,1.7,10.8,1.7c4.3,0,7.5-0.1,9.5-2.2c1-1,1.8-3.2,2-4.7
				c0.1-0.7,0.3-1.2,0.9-1.2c0.6,0,0.7,0.8,0.7,1.7c0,0.9-0.5,6.7-1.2,9c-0.6,1.7-0.9,2.1-5.1,2.1c-5.8,0-10.5-0.1-14.5-0.3
				c-4-0.1-7.4-0.2-10.7-0.2c-0.9,0-2.7,0.1-4.6,0.1c-1.9,0.1-3.9,0.2-5.6,0.2c-1,0-1.6-0.3-1.6-0.8c0-0.4,0.3-0.8,1.3-0.8
				c1.2,0,2.1-0.1,2.8-0.3c1.7-0.4,1.9-1.8,2.2-4.1c0.4-3.3,0.1-9.5,0.1-16.6v-13.8c0-11.8,0.2-14,0.1-16.5
				c-0.2-2.7-0.8-3.5-3.4-4.2c-0.6-0.2-1.6-0.3-2.6-0.3c-0.9,0-1.3-0.3-1.3-0.8s0.6-0.7,1.8-0.7c3.8,0,8.9,0.2,11.1,0.2
				c1.9,0,8.5-0.2,11.7-0.2c1.2,0,1.7,0.2,1.7,0.7c0,0.6-0.5,0.8-1.5,0.8c-0.9,0-2.2,0.1-3.1,0.3c-2.2,0.4-2.9,1.5-3.1,4.2
				c-0.2,2.5-0.3,4.7-0.3,16.5L785.3,421.3L785.3,421.3z"/>
			<path fill="#FFFFFF" d="M830.6,424c-0.5,0-0.6,0.2-0.7,0.7l-4.3,10.6c-0.8,1.9-1.2,3.8-1.2,4.8c0,1.4,0.7,2.2,3.2,2.2h1.2
				c1,0,1.2,0.4,1.2,0.9c0,0.6-0.5,0.8-1.3,0.8c-2.7,0-6.4-0.3-9-0.3c-0.8,0-5.1,0.3-9.4,0.3c-1,0-1.5-0.2-1.5-0.8
				c0-0.5,0.3-0.8,0.9-0.8c0.7,0,1.7-0.1,2.4-0.1c3.7-0.6,5-2.9,6.7-6.9l21.1-48.7c0.9-2.2,1.6-3.1,2.4-3.1c1.2,0,1.6,0.7,2.4,2.5
				c1.9,4.3,15.4,35.9,20.6,47.7c3.1,7.1,5.4,8.1,6.9,8.4c1.2,0.2,2.1,0.3,3,0.3c0.7,0,1.1,0.3,1.1,0.8c0,0.6-0.5,0.8-3.5,0.8
				c-2.8,0-8.7,0-15.5-0.2c-1.5-0.1-2.4-0.1-2.4-0.6s0.2-0.7,1-0.8c0.6-0.1,1.1-0.8,0.7-1.7l-6.2-15.9c-0.2-0.5-0.5-0.7-0.8-0.7h-19
				V424z M847.9,420c0.4,0,0.5-0.2,0.4-0.5l-7.6-19.6c-0.1-0.3-0.2-0.7-0.4-0.7c-0.3,0-0.4,0.5-0.5,0.7l-7.8,19.5
				c-0.2,0.4,0,0.6,0.3,0.6H847.9z"/>
			<path fill="#FFFFFF" d="M886.4,436.5c-8-6.7-10.1-15.5-10.1-23c0-5.3,1.7-14.5,9.5-21.4c5.9-5.1,13.6-8.3,25.6-8.3
				c5.1,0,8.1,0.4,11.7,0.8c3,0.5,5.7,1,8.1,1.3c0.9,0.1,1.2,0.5,1.2,0.9c0,0.6-0.2,1.6-0.4,4.3c-0.2,2.6-0.2,6.9-0.3,8.4
				c-0.1,1.1-0.4,1.9-1.1,1.9c-0.6,0-0.8-0.6-0.8-1.7c-0.1-2.5-1.1-5.2-3.1-7.3c-2.8-2.7-8.2-4.6-15.6-4.6c-7.1,0-11.6,1.3-15.2,4.4
				c-6,5.1-7.4,12.7-7.4,20.3c0,18.5,14.3,27.3,25.1,27.3c7.2,0,11.1-0.6,14.3-4.1c1.4-1.6,2.5-3.8,2.8-5.2c0.2-1.2,0.4-1.6,1-1.6
				s0.9,0.7,0.9,1.4c0,0.9-0.9,7.7-1.7,10.4c-0.4,1.4-0.7,1.7-2.1,2.3c-3.2,1.3-9.4,1.7-14.6,1.7C903.1,445,893.7,442.7,886.4,436.5
				z"/>
			<path fill="#FFFFFF" d="M949.3,407.5c0-11.8,0.3-14,0.2-16.5c-0.2-2.7-0.8-3.5-3.4-4.2c-0.6-0.2-2-0.3-3.1-0.3
				c-0.8,0-1.3-0.3-1.3-0.8s0.7-0.7,1.8-0.7c4.2,0,9.4,0.2,11.7,0.2c2.6,0,20.5,0.1,22,0s2.8-0.4,3.4-0.5c0.5-0.1,0.9-0.4,1.3-0.4
				c0.5,0,0.6,0.4,0.6,0.7c0,0.6-0.5,1.5-0.6,5c-0.1,0.8-0.3,4.2-0.5,5.1c-0.1,0.4-0.3,1.3-0.9,1.3c-0.6,0-0.6-0.4-0.6-1
				s-0.1-1.9-0.6-2.8c-0.6-1.4-1.3-2.5-5.3-2.8c-1.4-0.2-11.1-0.4-12.8-0.4c-0.4,0-0.6,0.3-0.6,0.7v19.3c0,0.5,0.2,0.8,0.6,0.8
				c1.8,0,12.3,0,14.2-0.2s3.1-0.5,3.9-1.2c0.6-0.6,0.9-1,1.3-1c0.4,0,0.7,0.4,0.7,0.8c0,0.5-0.2,1.7-0.6,5.7
				c-0.2,1.6-0.4,4.7-0.4,5.2c0,0.6-0.1,1.7-0.8,1.7c-0.6,0-0.7-0.3-0.7-0.6c-0.1-0.8-0.1-1.8-0.3-2.8c-0.5-1.6-1.5-2.8-4.5-3
				c-1.5-0.2-10.7-0.4-12.8-0.4c-0.4,0-0.6,0.4-0.6,0.8v6.2c0,2.7,0,9.3,0.1,11.6c0.2,5.3,2.7,6.5,11,6.5c2.1,0,5.5-0.1,7.6-1
				c2-0.9,3-2.6,3.5-5.8c0.2-0.8,0.4-1.2,0.9-1.2c0.6,0,0.7,1,0.7,1.8c0,1.7-0.6,7.1-1.1,8.6c-0.5,2-1.3,2-4.3,2
				c-6.1,0-10.9-0.1-14.9-0.3c-3.9-0.1-7-0.2-9.4-0.2c-0.9,0-2.7,0.1-4.6,0.1c-1.9,0.1-3.9,0.2-5.6,0.2c-1,0-1.6-0.3-1.6-0.8
				c0-0.4,0.3-0.8,1.3-0.8c1.2,0,2.1-0.1,2.8-0.3c1.7-0.4,1.9-1.8,2.1-4.1c0.4-3.3,0.1-9.5,0.1-16.6L949.3,407.5L949.3,407.5z"/>
			<path fill="#FFFFFF" d="M998.3,443c-1.3-0.6-1.6-0.9-1.6-2.7c0-4.2,0.4-9.1,0.5-10.4c0-1.2,0.4-2,1-2c0.7,0,0.8,0.7,0.8,1.3
				c0,1,0.3,2.7,0.7,4c1.7,5.8,7.8,7.7,12.8,7.7c7,0,11.2-4.4,11.2-9.9c0-3.4-0.8-6.8-8-11l-4.7-2.8c-9.5-5.6-12.7-10.8-12.7-17.7
				c0-9.5,9.2-15.7,20.4-15.7c5.2,0,9.4,0.7,11.5,1.3c0.7,0.2,1.1,0.5,1.1,1c0,1-0.3,3.2-0.3,9.4c0,1.7-0.4,2.5-1,2.5
				c-0.5,0-0.8-0.5-0.8-1.4c0-0.7-0.4-3.1-2.1-5.1c-1.2-1.5-3.8-3.7-9-3.7c-5.8,0-11,3-11,8.4c0,3.5,1.3,6.2,8.5,10.3l3.3,1.8
				c10.6,5.9,13.9,11.8,13.9,18.9c0,5.8-2.2,10.5-8.1,14.6c-3.9,2.8-9.2,3.2-13.5,3.2C1006.7,445,1001.7,444.5,998.3,443z"/>
		</g>
	</g>
	<polygon fill="#00A99D" points="360.1,344.9 246.7,320.3 246.7,470.3 289.3,461 289.3,416.9 327.7,413.5 327.7,375.4 360.1,377.6 	
		"/>
	<polygon fill="#1A1A1A" points="338.6,366.9 320.6,375.4 320.6,413.2 286.2,416.5 286.2,460.7 307.2,480.3 373,459.8 371.8,376.5 	
		"/>
	<polygon fill="#FFFFFF" points="338.9,367 338.9,422.2 306.5,425.8 306.5,480.3 376.3,458.7 376.3,375.8 	"/>
	<polygon fill="#1A1A1A" points="323.7,475.1 323.7,434.5 316.6,435.6 316.6,477.3 	"/>
	<polygon fill="#1A1A1A" points="331.8,472.6 338.9,470.4 338.9,432.1 331.8,433.2 	"/>
	<polygon fill="#1A1A1A" points="347,467.9 354.1,465.7 354.1,380.8 347,379.6 	"/>
	<polygon fill="#1A1A1A" points="362.1,463.2 369.2,461 369.2,383.1 362.1,382 	"/>
</g>
</svg>
