<?xml version="1.0" encoding="utf-8"?>
<!-- Generator: Adobe Illustrator 18.0.0, SVG Export Plug-In . SVG Version: 6.00 Build 0)  -->
<!DOCTYPE svg PUBLIC "-//W3C//DTD SVG 1.1//EN" "http://www.w3.org/Graphics/SVG/1.1/DTD/svg11.dtd">
<svg version="1.1" id="Layer_1" xmlns="http://www.w3.org/2000/svg" xmlns:xlink="http://www.w3.org/1999/xlink" x="0px" y="0px"
	 viewBox="0 0 1280 800" enable-background="new 0 0 1280 800" xml:space="preserve">
<g>
	<g>
		<g>
			<path fill="#4D4D4D" d="M451.5,416.5c0,8.7,0,15.5,0.5,19.4c0.3,2.6,0.8,4.6,3.5,5c1.3,0.2,3.3,0.4,4.5,0.4s1.5,0.3,1.5,0.7
				c0,0.6-0.6,0.9-2,0.9c-5.7,0-11.5-0.3-13.8-0.3c-2.4,0-8.1,0.3-11.5,0.3c-1.3,0-1.9-0.2-1.9-0.9c0-0.5,0.4-0.7,1.4-0.7
				c1.4,0,2.5-0.2,3.3-0.4c1.8-0.4,2.3-2.4,2.6-5c0.5-3.8,0.5-10.6,0.5-19.4v-16c0-13.8,0-16.4-0.2-19.3c-0.2-3.1-0.9-4.5-3.9-5.2
				c-0.7-0.2-2.3-0.3-3.5-0.3c-0.9,0-1.5-0.2-1.5-0.7c0-0.7,0.7-0.9,2.1-0.9c2.4,0,5,0.1,7.4,0.1c2.4,0.1,4.5,0.2,5.7,0.2
				c3.5,0,21.9,0,24-0.1c1.7-0.1,2.8-0.1,3.7-0.4c0.5-0.2,1-0.5,1.5-0.5c0.4,0,0.6,0.4,0.6,0.8c0,0.6-0.5,1.7-0.7,4.1
				c-0.1,0.9-0.3,6.3-0.5,7.4c-0.1,0.7-0.3,1.3-0.9,1.3s-0.8-0.5-0.9-1.5c0-0.7,0-2.2-0.5-3.5c-0.6-1.3-2.5-2.6-6-2.7l-14-0.3
				c-0.5,0-0.8,0.3-0.8,1.3V403c0,0.5,0.1,0.8,0.6,0.8l11.6-0.1c1.5,0,2.8,0,4.1-0.1c1.7-0.1,3-0.5,3.9-1.6c0.5-0.5,0.6-0.9,1.2-0.9
				c0.4,0,0.5,0.3,0.5,0.8s-0.5,2.8-0.7,5.6c-0.2,1.8-0.4,6-0.4,6.6c0,0.8,0,1.7-0.9,1.7c-0.5,0-0.7-0.6-0.7-1.3
				c0-0.6-0.2-1.7-0.5-2.8c-0.5-1.3-1.8-2.9-4.6-3.3c-2.3-0.3-11.9-0.3-13.5-0.3c-0.5,0-0.6,0.2-0.6,0.8v7.6H451.5z"/>
			<path fill="#4D4D4D" d="M491.4,406.8c0-11.7,0.1-13.9-0.1-16.4c-0.2-2.7-0.9-3.5-3.5-4.2c-0.6-0.2-2-0.3-3.1-0.3
				c-0.9,0-1.4-0.3-1.4-0.8s0.5-0.7,1.7-0.7c4.3,0,9.6,0.2,12,0.2c2,0,7.4-0.2,10.3-0.2c1.2,0,1.7,0.2,1.7,0.7s-0.5,0.8-1.3,0.8
				c-0.9,0-1.4,0.1-2.4,0.3c-2.1,0.4-2.7,1.5-2.9,4.2c-0.2,2.5-0.2,4.6-0.2,16.4v10.8c0,11.3,2.2,15.6,6.1,18.7
				c3.5,2.8,7.4,3.1,10.1,3.1c3.5,0,7.5-1,10.7-4.1c4.5-4.2,4.6-10.9,4.6-18.8v-9.7c0-11.7-0.1-13.9-0.2-16.4
				c-0.2-2.6-0.8-3.5-3.4-4.2c-0.6-0.2-2-0.3-2.9-0.3s-1.4-0.3-1.4-0.8s0.5-0.7,1.6-0.7c4.1,0,9.5,0.2,9.5,0.2
				c0.9,0,6.3-0.2,9.4-0.2c1.1,0,1.6,0.2,1.6,0.7s-0.5,0.8-1.4,0.8s-1.4,0.1-2.4,0.3c-2.2,0.4-2.7,1.5-2.9,4.2
				c-0.1,2.5-0.2,4.6-0.2,16.4v8.3c0,8.6-0.9,17.7-7.6,23.3c-5.6,4.7-11.7,5.5-16.9,5.5c-4.2,0-12.5-0.2-18.3-5.3
				c-4.1-3.5-7.3-9.3-7.3-20.5v-11.3H491.4z"/>
			<path fill="#4D4D4D" d="M567.1,432.3c0.2,6,1.2,7.8,2.7,8.4c1.4,0.5,2.9,0.5,4.2,0.5c0.9,0,1.4,0.4,1.4,0.8
				c0,0.6-0.7,0.8-1.8,0.8c-5.2,0-8.9-0.3-10.4-0.3c-0.7,0-4.5,0.3-8.6,0.3c-1.1,0-1.8-0.1-1.8-0.8c0-0.5,0.5-0.8,1.3-0.8
				c1.1,0,2.5-0.1,3.6-0.4c2.1-0.5,2.4-2.6,2.5-9.4l0.7-45.8c0-1.5,0.5-2.6,1.4-2.6c1,0,2.1,1.2,3.5,2.5c1,1,13,13.3,24.6,24.6
				c5.5,5.4,16.1,16.3,17.3,17.4h0.4l-0.8-34.4c-0.1-4.7-0.8-6.1-2.7-6.8c-1.2-0.5-3.1-0.5-4.2-0.5c-1,0-1.3-0.4-1.3-0.8
				c0-0.6,0.8-0.7,2-0.7c4.2,0,8.5,0.2,10.2,0.2c0.9,0,3.9-0.2,7.8-0.2c1.1,0,1.8,0.1,1.8,0.7c0,0.5-0.5,0.8-1.4,0.8
				c-0.8,0-1.5,0-2.5,0.3c-2.2,0.6-2.8,2-2.9,6.4l-0.9,48.7c0,1.7-0.6,2.5-1.3,2.5c-1.4,0-2.5-0.8-3.3-1.6c-5-4.6-15-14.2-23.4-22.3
				c-8.7-8.4-17.2-17.7-18.7-19.1h-0.3L567.1,432.3z"/>
			<path fill="#4D4D4D" d="M638.5,406.8c0-11.7,0-13.9-0.1-16.4c-0.2-2.6-0.9-3.5-3.5-4.2c-0.6-0.2-2-0.3-3.2-0.3
				c-0.8,0-1.4-0.3-1.4-0.8s0.6-0.7,1.8-0.7c4.2,0,9.3,0.2,11.5,0.2c2.5,0,8.2-0.2,13-0.2c10,0,23.5,0,32.2,8.8
				c4,4,7.5,10.5,7.5,19.6c0,9.7-4.2,17.1-8.7,21.5c-3.6,3.6-12.1,9.1-26.8,9.1c-2.9,0-6.4-0.3-9.5-0.5c-3.2-0.3-6.1-0.5-8.1-0.5
				c-0.9,0-2.6,0.1-4.5,0.1c-1.9,0.1-3.9,0.2-5.5,0.2c-1,0-1.5-0.3-1.5-0.8c0-0.4,0.3-0.8,1.3-0.8c1.2,0,2.1-0.1,2.8-0.3
				c1.6-0.4,2.1-1.8,2.4-4.1c0.4-3.3,0.4-9.4,0.4-16.5v-13.4H638.5z M649.3,415.3c0,8.2,0.1,14.1,0.2,15.6c0.1,1.9,0.3,4.6,0.9,5.5
				c1,1.5,4.2,3.1,10.5,3.1c7.3,0,12.6-1.3,17.5-5.3c5.2-4.3,6.8-11.2,6.8-19.2c0-9.8-3.9-16.2-7.5-19.3c-7.4-6.5-16.1-7.4-22.4-7.4
				c-1.6,0-4.3,0.2-4.9,0.5c-0.7,0.3-1,0.6-1,1.5c-0.1,2.6-0.1,9-0.1,15.1V415.3z"/>
			<path fill="#4D4D4D" d="M715.9,400.5c0-13.8,0-16.4-0.2-19.3c-0.2-3.1-0.9-4.5-3.9-5.2c-0.7-0.2-2.3-0.3-3.5-0.3
				c-1,0-1.5-0.2-1.5-0.8c0-0.6,0.6-0.8,2-0.8c4.8,0,10.5,0.3,13.1,0.3c3.7,0,9-0.3,13.2-0.3c11.4,0,15.5,3.8,16.9,5.2
				c2,1.9,4.5,6,4.5,10.8c0,12.9-9.5,22-22.4,22c-0.5,0-1.5,0-1.9-0.1c-0.5-0.1-1.1-0.2-1.1-0.8c0-0.7,0.6-1,2.5-1
				c5.1,0,12.2-5.7,12.2-15c0-3-0.3-9.1-5.4-13.6c-3.3-3-7-3.5-9.1-3.5c-1.4,0-2.7,0.1-3.5,0.4c-0.5,0.2-0.7,0.7-0.7,1.7v36.4
				c0,8.4,0,15.5,0.5,19.5c0.3,2.5,0.8,4.5,3.5,4.9c1.3,0.2,3.3,0.4,4.6,0.4c1,0,1.5,0.3,1.5,0.7c0,0.6-0.7,0.9-1.7,0.9
				c-6,0-11.7-0.3-14.1-0.3c-2.1,0-7.8,0.3-11.5,0.3c-1.2,0-1.8-0.3-1.8-0.9c0-0.5,0.4-0.7,1.5-0.7c1.4,0,2.5-0.2,3.3-0.4
				c1.8-0.4,2.3-2.4,2.6-5c0.5-3.8,0.5-11,0.5-19.4L715.9,400.5L715.9,400.5z"/>
			<path fill="#4D4D4D" d="M784.4,420.4c0,9.9,0,14.8,1.7,16.3c1.4,1.2,4.5,1.6,10.6,1.6c4.3,0,7.4-0.1,9.4-2.2c1-1,1.8-3.2,2-4.6
				c0.1-0.7,0.3-1.2,0.9-1.2c0.5,0,0.7,0.8,0.7,1.7c0,0.9-0.5,6.6-1.2,8.9c-0.5,1.7-0.9,2.1-5.1,2.1c-5.7,0-10.4-0.1-14.4-0.3
				c-4-0.1-7.4-0.2-10.6-0.2c-0.9,0-2.6,0.1-4.5,0.1c-1.9,0.1-3.9,0.2-5.5,0.2c-1,0-1.5-0.3-1.5-0.8c0-0.4,0.3-0.8,1.3-0.8
				c1.2,0,2.1-0.1,2.8-0.3c1.6-0.4,2.1-1.8,2.4-4.1c0.4-3.3,0.4-9.4,0.4-16.5v-13.6c0-11.7,0-13.9-0.1-16.4
				c-0.2-2.6-0.9-3.5-3.5-4.2c-0.6-0.2-1.6-0.3-2.6-0.3c-0.9,0-1.4-0.3-1.4-0.8s0.5-0.7,1.7-0.7c3.7,0,8.8,0.2,11,0.2
				c1.9,0,8.5-0.2,11.5-0.2c1.2,0,1.7,0.2,1.7,0.7s-0.5,0.8-1.5,0.8c-0.9,0-2.2,0.1-3.1,0.3c-2.2,0.4-2.8,1.5-3,4.2
				c-0.2,2.5-0.2,4.6-0.2,16.4L784.4,420.4L784.4,420.4z"/>
			<path fill="#4D4D4D" d="M829.1,423.3c-0.5,0-0.5,0.1-0.7,0.5l-4.3,10.5c-0.8,1.9-1.2,3.8-1.2,4.7c0,1.4,0.7,2.2,3.2,2.2h1.2
				c1,0,1.2,0.4,1.2,0.8c0,0.6-0.5,0.8-1.3,0.8c-2.6,0-6.4-0.3-8.9-0.3c-0.8,0-5.1,0.3-9.3,0.3c-1,0-1.5-0.2-1.5-0.8
				c0-0.5,0.3-0.8,0.9-0.8c0.7,0,1.6-0.1,2.4-0.1c3.6-0.5,5-2.9,6.6-6.8l20.9-48.3c0.9-2.2,1.5-3.1,2.4-3.1c1.2,0,1.5,0.7,2.4,2.5
				c1.9,4.3,15.3,35.6,20.4,47.3c3.1,7,5.4,8,6.8,8.3c1.2,0.2,2.1,0.3,3,0.3c0.7,0,1.1,0.3,1.1,0.8c0,0.6-0.5,0.8-3.5,0.8
				c-2.8,0-8.6,0-15.4-0.2c-1.5-0.1-2.4-0.1-2.4-0.6s0.2-0.7,1-0.8c0.5-0.1,1.1-0.8,0.7-1.7l-6.2-15.6c-0.2-0.5-0.5-0.5-0.8-0.5
				h-18.7V423.3z M846.2,419c0.4,0,0.5-0.2,0.4-0.5l-7.5-19.4c-0.1-0.3-0.2-0.7-0.4-0.7c-0.3,0-0.4,0.5-0.5,0.7l-7.7,19.3
				c-0.2,0.4,0,0.5,0.3,0.5h15.4V419z"/>
			<path fill="#4D4D4D" d="M884.4,435.5c-7.9-6.6-10-15.4-10-22.8c0-5.3,1.7-14.4,9.4-21.2c5.8-5.1,13.5-8.2,25.4-8.2
				c5,0,8,0.4,11.6,0.8c3,0.5,5.6,1,8,1.3c0.9,0.1,1.2,0.5,1.2,0.9c0,0.6-0.2,1.5-0.4,4.3c-0.2,2.5-0.2,6.8-0.3,8.4
				c-0.1,1.1-0.4,1.9-1.1,1.9c-0.6,0-0.8-0.6-0.8-1.6c-0.1-2.5-1.1-5.2-3.1-7.2c-2.7-2.6-8.1-4.5-15.5-4.5c-7,0-11.5,1.3-15.1,4.4
				c-5.9,5.1-7.4,12.5-7.4,20.1c0,18.4,14.2,27.1,24.9,27.1c7.1,0,11-0.5,14.2-4.1c1.4-1.5,2.5-3.7,2.7-5.2c0.2-1.2,0.4-1.5,1-1.5
				c0.5,0,0.9,0.7,0.9,1.4c0,0.9-0.9,7.6-1.7,10.3c-0.4,1.4-0.7,1.7-2.1,2.3c-3.2,1.3-9.3,1.7-14.5,1.7
				C900.9,443.9,891.7,441.6,884.4,435.5z"/>
			<path fill="#4D4D4D" d="M947.2,406.8c0-11.7,0-13.9-0.1-16.4c-0.2-2.6-0.9-3.5-3.5-4.2c-0.6-0.2-2-0.3-3.2-0.3
				c-0.8,0-1.4-0.3-1.4-0.8s0.6-0.7,1.8-0.7c4.2,0,9.3,0.2,11.5,0.2c2.5,0,20.3,0.1,21.8,0s2.7-0.4,3.4-0.5c0.5-0.1,0.9-0.4,1.3-0.4
				c0.5,0,0.5,0.4,0.5,0.7c0,0.5-0.5,1.5-0.6,5c-0.1,0.8-0.3,4.2-0.5,5.1c-0.1,0.4-0.3,1.3-0.9,1.3c-0.5,0-0.6-0.4-0.6-1
				c0-0.5-0.1-1.9-0.5-2.8c-0.6-1.4-1.3-2.5-5.3-2.8c-1.4-0.2-10.9-0.4-12.5-0.4c-0.4,0-0.5,0.3-0.5,0.7v19.1c0,0.5,0.1,0.8,0.5,0.8
				c1.8,0,12.2,0,14-0.2c1.9-0.2,3-0.5,3.8-1.2c0.6-0.5,0.9-1,1.3-1c0.4,0,0.6,0.4,0.6,0.8c0,0.5-0.2,1.7-0.6,5.6
				c-0.2,1.5-0.4,4.6-0.4,5.2s-0.1,1.7-0.8,1.7c-0.5,0-0.7-0.3-0.7-0.6c-0.1-0.8-0.1-1.8-0.3-2.8c-0.5-1.5-1.5-2.7-4.5-3
				c-1.5-0.2-10.5-0.4-12.5-0.4c-0.4,0-0.5,0.4-0.5,0.8v6.2c0,2.6-0.1,9.2,0,11.5c0.2,5.3,2.6,6.5,10.8,6.5c2.1,0,5.5-0.1,7.5-1
				s2.9-2.5,3.5-5.7c0.2-0.8,0.4-1.2,0.9-1.2c0.6,0,0.7,1,0.7,1.8c0,1.7-0.6,7-1.1,8.5c-0.5,2-1.3,2-4.3,2c-6,0-10.8-0.1-14.7-0.3
				c-3.9-0.1-6.9-0.2-9.3-0.2c-0.9,0-2.6,0.1-4.5,0.1c-1.9,0.1-3.9,0.2-5.5,0.2c-1,0-1.5-0.3-1.5-0.8c0-0.4,0.3-0.8,1.3-0.8
				c1.2,0,2.1-0.1,2.8-0.3c1.6-0.4,2.1-1.8,2.4-4.1c0.4-3.3,0.4-9.4,0.4-16.5L947.2,406.8L947.2,406.8z"/>
			<path fill="#4D4D4D" d="M995.2,441.9c-1.3-0.5-1.5-0.9-1.5-2.6c0-4.2,0.4-9,0.5-10.3c0-1.2,0.4-2,1-2c0.7,0,0.8,0.7,0.8,1.3
				c0,1,0.3,2.6,0.7,4c1.7,5.7,7.7,7.6,12.7,7.6c6.9,0,11.1-4.4,11.1-9.8c0-3.4-0.8-6.7-7.9-10.9l-4.6-2.7
				c-9.5-5.5-12.6-10.7-12.6-17.5c0-9.5,9.1-15.5,20.2-15.5c5.2,0,9.3,0.7,11.4,1.3c0.7,0.2,1.1,0.5,1.1,1c0,1-0.3,3.2-0.3,9.3
				c0,1.6-0.4,2.5-1,2.5c-0.5,0-0.8-0.5-0.8-1.4c0-0.7-0.4-3.1-2.1-5.1c-1.2-1.5-3.7-3.6-8.9-3.6c-5.7,0-10.9,3-10.9,8.3
				c0,3.5,1.3,6.2,8.5,10.2l3.3,1.8c10.5,5.8,13.8,11.7,13.8,18.7c0,5.7-2.2,10.4-8,14.5c-3.8,2.7-9.1,3.2-13.4,3.2
				C1003.6,443.9,998.7,443.4,995.2,441.9z"/>
		</g>
	</g>
	<polygon fill="#00A99D" points="362.9,344.7 251,320.4 251,469 292.7,459.7 292.7,416.1 331.4,412.7 331.4,374.9 362.9,377.2 	"/>
	<polygon fill="#FFFFFF" points="341.9,366.5 324.3,374.9 324.3,412.4 289.6,415.7 289.6,459.4 310.5,478.9 375.7,458.6 374.6,376 	
		"/>
	<polygon fill="#4D4D4D" points="341.6,366.6 341.6,421.3 310.1,424.9 310.1,478.9 379.4,457.4 379.4,375.3 	"/>
	<rect x="319.5" y="429.9" fill="#FFFFFF" width="7.1" height="50.4"/>
	<rect x="334.5" y="428.4" fill="#FFFFFF" width="7.1" height="52"/>
	<rect x="349.5" y="376.3" fill="#FFFFFF" width="7.1" height="104"/>
	<rect x="365.2" y="376.3" fill="#FFFFFF" width="7.1" height="104"/>
	<polygon fill="#4D4D4D" points="343.6,430.8 314.4,435.4 314.8,427.6 345.1,423.7 	"/>
	<polygon fill="#4D4D4D" points="376.7,383.4 347.5,378.8 347.9,371.7 378.3,375.6 	"/>
</g>
</svg>
